<?xml version="1.0" encoding="UTF-8"?><svg id="a" xmlns="http://www.w3.org/2000/svg" xmlns:xlink="http://www.w3.org/1999/xlink" viewBox="0 0 412.44 299.19"><defs><style>.s,.t,.u,.v,.w,.x,.y,.z,.aa,.ab{fill:none;}.t{stroke:#ccc;}.t,.ac{opacity:.95;}.t,.ab{stroke-miterlimit:10;}.u{stroke:#9932cc;}.u,.v,.w,.x,.y,.z,.aa{stroke-linejoin:round;}.u,.v,.w,.y{opacity:.9;stroke-width:2px;}.u,.v,.w,.y,.ab{stroke-linecap:square;}.ad,.ac{fill:#fff;}.ae{fill:#444;}.v{stroke:#ff4500;}.w{stroke:#40e0d0;}.x,.z,.ab{stroke-width:.8px;}.x,.aa,.ab{stroke:#000;}.y{stroke:#32cd32;}.z{opacity:.3;stroke:#666;stroke-dasharray:0 0 2.96 1.28;}.aa{stroke-width:.6px;}.af{clip-path:url(#q);}.ag{clip-path:url(#n);}.ah{clip-path:url(#k);}.ai{clip-path:url(#l);}.aj{clip-path:url(#p);}.ak{clip-path:url(#r);}.al{clip-path:url(#o);}.am{clip-path:url(#i);}.an{clip-path:url(#h);}.ao{clip-path:url(#m);}.ap{clip-path:url(#j);}.aq{clip-path:url(#g);}.ar{clip-path:url(#e);}.as{clip-path:url(#f);}.at{clip-path:url(#d);}.au{clip-path:url(#b);}.av{clip-path:url(#c);}</style><clipPath id="b"><rect class="s" x="35.5" y="47.85" width="167.4" height="221.76"/></clipPath><clipPath id="c"><rect class="s" x="35.5" y="47.85" width="167.4" height="221.76"/></clipPath><clipPath id="d"><rect class="s" x="35.5" y="47.85" width="167.4" height="221.76"/></clipPath><clipPath id="e"><rect class="s" x="35.5" y="47.85" width="167.4" height="221.76"/></clipPath><clipPath id="f"><rect class="s" x="35.5" y="47.85" width="167.4" height="221.76"/></clipPath><clipPath id="g"><rect class="s" x="35.5" y="47.85" width="167.4" height="221.76"/></clipPath><clipPath id="h"><rect class="s" x="35.5" y="47.85" width="167.4" height="221.76"/></clipPath><clipPath id="i"><rect class="s" x="242.86" y="47.85" width="167.4" height="221.76"/></clipPath><clipPath id="j"><rect class="s" x="242.86" y="47.85" width="167.4" height="221.76"/></clipPath><clipPath id="k"><rect class="s" x="242.86" y="47.85" width="167.4" height="221.76"/></clipPath><clipPath id="l"><rect class="s" x="242.86" y="47.85" width="167.4" height="221.76"/></clipPath><clipPath id="m"><rect class="s" x="242.86" y="47.85" width="167.4" height="221.76"/></clipPath><clipPath id="n"><rect class="s" x="242.86" y="47.85" width="167.4" height="221.76"/></clipPath><clipPath id="o"><rect class="s" x="242.86" y="47.85" width="167.4" height="221.76"/></clipPath><clipPath id="p"><rect class="s" x="242.86" y="47.85" width="167.4" height="221.76"/></clipPath><clipPath id="q"><rect class="s" x="242.86" y="47.85" width="167.4" height="221.76"/></clipPath><clipPath id="r"><rect class="s" x="242.86" y="47.85" width="167.4" height="221.76"/></clipPath></defs><rect class="ad" x="35.5" y="47.85" width="167.4" height="221.76"/><g class="au"><line class="z" x1="43.11" y1="269.61" x2="43.11" y2="47.85"/></g><line class="x" x1="43.11" y1="269.61" x2="43.11" y2="273.11"/><path d="m35.15,276.78c.81,0,1.43.33,1.87.97.43.65.65,1.59.65,2.81s-.22,2.17-.65,2.81c-.44.64-1.06.96-1.88.96s-1.44-.32-1.87-.96-.64-1.58-.64-2.81.21-2.16.64-2.81c.43-.64,1.06-.97,1.88-.97Zm0,.78c-.51,0-.89.25-1.15.75-.26.5-.38,1.25-.38,2.25s.12,1.75.38,2.25c.26.5.64.75,1.15.75s.89-.25,1.15-.75c.25-.5.38-1.25.38-2.25s-.13-1.75-.38-2.25c-.26-.5-.64-.75-1.15-.75Z"/><rect x="39.4" y="282.96" width="1.03" height="1.24"/><path d="m44.69,276.78c.81,0,1.43.33,1.87.97.43.65.65,1.59.65,2.81s-.22,2.17-.65,2.81c-.44.64-1.06.96-1.88.96s-1.44-.32-1.87-.96-.64-1.58-.64-2.81.21-2.16.64-2.81c.43-.64,1.06-.97,1.88-.97Zm0,.78c-.51,0-.89.25-1.15.75-.26.5-.38,1.25-.38,2.25s.12,1.75.38,2.25c.26.5.64.75,1.15.75s.89-.25,1.15-.75c.25-.5.38-1.25.38-2.25s-.13-1.75-.38-2.25c-.26-.5-.64-.75-1.15-.75Z"/><path d="m51.05,276.78c.81,0,1.43.33,1.87.97.43.65.65,1.59.65,2.81s-.22,2.17-.65,2.81c-.44.64-1.06.96-1.88.96s-1.44-.32-1.87-.96-.64-1.58-.64-2.81.21-2.16.64-2.81c.43-.64,1.06-.97,1.88-.97Zm0,.78c-.51,0-.89.25-1.15.75-.26.5-.38,1.25-.38,2.25s.12,1.75.38,2.25c.26.5.64.75,1.15.75s.89-.25,1.15-.75c.25-.5.38-1.25.38-2.25s-.13-1.75-.38-2.25c-.26-.5-.64-.75-1.15-.75Z"/><g class="av"><line class="z" x1="92.2" y1="269.61" x2="92.2" y2="47.85"/></g><line class="x" x1="92.2" y1="269.61" x2="92.2" y2="273.11"/><path d="m84.25,276.78c.81,0,1.43.33,1.87.97.43.65.65,1.59.65,2.81s-.22,2.17-.65,2.81c-.44.64-1.06.96-1.88.96s-1.44-.32-1.87-.96-.64-1.58-.64-2.81.21-2.16.64-2.81c.43-.64,1.06-.97,1.88-.97Zm0,.78c-.51,0-.89.25-1.15.75s-.38,1.25-.38,2.25.12,1.75.38,2.25.64.75,1.15.75.89-.25,1.15-.75c.25-.5.38-1.25.38-2.25s-.13-1.75-.38-2.25c-.26-.5-.64-.75-1.15-.75Z"/><rect x="88.5" y="282.96" width="1.03" height="1.24"/><path d="m93.79,276.78c.81,0,1.43.33,1.87.97.43.65.65,1.59.65,2.81s-.22,2.17-.65,2.81c-.44.64-1.06.96-1.88.96s-1.44-.32-1.87-.96-.64-1.58-.64-2.81.21-2.16.64-2.81c.43-.64,1.06-.97,1.88-.97Zm0,.78c-.51,0-.89.25-1.15.75s-.38,1.25-.38,2.25.12,1.75.38,2.25.64.75,1.15.75.89-.25,1.15-.75c.25-.5.38-1.25.38-2.25s-.13-1.75-.38-2.25c-.26-.5-.64-.75-1.15-.75Z"/><path d="m98.05,276.91h3.87v.83h-2.97v1.79c.14-.05.29-.09.43-.11.14-.02.29-.04.43-.04.81,0,1.45.23,1.93.67.48.45.72,1.05.72,1.81s-.25,1.4-.74,1.83-1.18.64-2.06.64c-.31,0-.62-.03-.94-.07-.32-.05-.64-.12-.98-.23v-.99c.29.16.59.28.91.36.31.08.64.11.99.11.56,0,1.01-.14,1.34-.44.32-.3.49-.7.49-1.21s-.17-.9-.49-1.2c-.33-.3-.78-.45-1.34-.45-.26,0-.53.03-.79.09-.26.06-.53.15-.8.27v-3.66Z"/><g class="at"><line class="z" x1="141.29" y1="269.61" x2="141.29" y2="47.85"/></g><line class="x" x1="141.29" y1="269.61" x2="141.29" y2="273.11"/><path d="m133.34,276.78c.81,0,1.43.33,1.87.97.43.65.65,1.59.65,2.81s-.22,2.17-.65,2.81c-.44.64-1.06.96-1.88.96s-1.44-.32-1.87-.96c-.43-.64-.64-1.58-.64-2.81s.21-2.16.64-2.81c.43-.64,1.06-.97,1.88-.97Zm0,.78c-.51,0-.89.25-1.15.75s-.38,1.25-.38,2.25.12,1.75.38,2.25.64.75,1.15.75.89-.25,1.15-.75c.25-.5.38-1.25.38-2.25s-.13-1.75-.38-2.25c-.26-.5-.64-.75-1.15-.75Z"/><rect x="137.59" y="282.96" width="1.03" height="1.24"/><polygon points="140.94 283.37 142.55 283.37 142.55 277.81 140.8 278.16 140.8 277.26 142.54 276.91 143.53 276.91 143.53 283.37 145.14 283.37 145.14 284.2 140.94 284.2 140.94 283.37"/><path d="m149.24,276.78c.81,0,1.43.33,1.87.97.43.65.65,1.59.65,2.81s-.22,2.17-.65,2.81c-.44.64-1.06.96-1.88.96s-1.44-.32-1.87-.96c-.43-.64-.64-1.58-.64-2.81s.21-2.16.64-2.81c.43-.64,1.06-.97,1.88-.97Zm0,.78c-.51,0-.89.25-1.15.75s-.38,1.25-.38,2.25.12,1.75.38,2.25.64.75,1.15.75.89-.25,1.15-.75c.25-.5.38-1.25.38-2.25s-.13-1.75-.38-2.25c-.26-.5-.64-.75-1.15-.75Z"/><g class="ar"><line class="z" x1="190.38" y1="269.61" x2="190.38" y2="47.85"/></g><line class="x" x1="190.38" y1="269.61" x2="190.38" y2="273.11"/><path d="m182.43,276.78c.81,0,1.43.33,1.87.97.43.65.65,1.59.65,2.81s-.22,2.17-.65,2.81c-.44.64-1.06.96-1.88.96s-1.44-.32-1.87-.96c-.43-.64-.64-1.58-.64-2.81s.21-2.16.64-2.81c.43-.64,1.06-.97,1.88-.97Zm0,.78c-.51,0-.89.25-1.15.75s-.38,1.25-.38,2.25.12,1.75.38,2.25.64.75,1.15.75.89-.25,1.15-.75c.25-.5.38-1.25.38-2.25s-.13-1.75-.38-2.25c-.26-.5-.64-.75-1.15-.75Z"/><rect x="186.68" y="282.96" width="1.03" height="1.24"/><polygon points="190.03 283.37 191.64 283.37 191.64 277.81 189.89 278.16 189.89 277.26 191.63 276.91 192.62 276.91 192.62 283.37 194.23 283.37 194.23 284.2 190.03 284.2 190.03 283.37"/><path d="m196.23,276.91h3.87v.83h-2.97v1.79c.14-.05.29-.09.43-.11.14-.02.29-.04.43-.04.81,0,1.45.23,1.93.67.48.45.72,1.05.72,1.81s-.25,1.4-.74,1.83-1.18.64-2.06.64c-.31,0-.62-.03-.94-.07-.32-.05-.64-.12-.98-.23v-.99c.29.16.59.28.91.36.31.08.64.11.99.11.56,0,1.01-.14,1.34-.44.32-.3.49-.7.49-1.21s-.17-.9-.49-1.2c-.33-.3-.78-.45-1.34-.45-.26,0-.53.03-.79.09-.26.06-.53.15-.8.27v-3.66Z"/><polygon class="ae" points="96.22 290.59 102.94 290.59 102.94 292.01 100.52 292.01 100.52 297.88 98.64 297.88 98.64 292.01 96.22 292.01 96.22 290.59"/><path class="ae" d="m103.83,290.28h1.75v1.43h-1.75v-1.43Zm0,2.13h1.75v5.47h-1.75v-5.47Z"/><path class="ae" d="m112.33,293.32c.22-.34.48-.59.78-.77.3-.18.64-.27,1.01-.27.62,0,1.1.2,1.43.58.33.39.5.95.5,1.69v3.33h-1.76v-2.85s0-.09,0-.13v-.2c0-.38-.06-.66-.17-.84-.12-.17-.3-.26-.55-.26-.34,0-.59.14-.77.41-.18.28-.28.67-.28,1.18v2.69h-1.76v-2.85c0-.6-.06-.99-.16-1.17-.1-.17-.29-.26-.55-.26-.34,0-.6.14-.78.41-.18.28-.27.67-.27,1.18v2.69h-1.76v-5.47h1.76v.8c.21-.3.46-.53.74-.69.28-.16.58-.24.92-.24.37,0,.7.1.99.28s.51.44.67.76Z"/><path class="ae" d="m121.34,294.55c0-.33-.1-.6-.29-.8-.2-.2-.45-.31-.76-.31-.34,0-.62.1-.83.29-.21.19-.34.46-.39.82h2.27Zm1.8.58v.5h-4.09c.04.41.19.72.45.92.25.21.6.31,1.06.31.36,0,.74-.05,1.13-.16.38-.11.78-.28,1.19-.5v1.35c-.42.16-.83.27-1.24.34-.42.08-.83.12-1.24.12-.99,0-1.76-.25-2.31-.75-.55-.5-.82-1.2-.82-2.11s.27-1.59.81-2.1c.54-.51,1.28-.77,2.22-.77.86,0,1.54.26,2.06.78.52.52.78,1.21.78,2.07Z"/><path class="ae" d="m130.87,299.19h-1.45c-.5-.81-.87-1.57-1.11-2.29-.24-.72-.35-1.43-.35-2.15s.12-1.43.36-2.16c.24-.73.6-1.5,1.1-2.3h1.45c-.42.78-.74,1.53-.94,2.27-.21.74-.31,1.46-.31,2.18s.1,1.45.31,2.19c.2.74.52,1.48.94,2.26Z"/><path class="ae" d="m136.78,292.58v1.33c-.38-.15-.74-.27-1.08-.35-.35-.08-.68-.12-.99-.12-.34,0-.58.05-.74.13s-.24.21-.24.38c0,.14.06.25.18.32.12.08.34.13.66.17l.31.04c.89.12,1.49.3,1.8.56.31.26.47.67.47,1.23s-.22,1.02-.65,1.31c-.43.29-1.07.43-1.92.43-.36,0-.74-.03-1.12-.08-.39-.05-.79-.13-1.19-.25v-1.33c.34.18.7.31,1.07.39.36.08.74.12,1.12.12.34,0,.59-.04.77-.14.17-.09.26-.23.26-.42,0-.16-.06-.27-.18-.35s-.36-.14-.71-.18l-.31-.04c-.78-.09-1.32-.27-1.63-.54-.32-.26-.47-.66-.47-1.2,0-.58.19-1.01.59-1.29s1.01-.42,1.83-.42c.32,0,.65.03,1.01.08s.74.12,1.16.22Z"/><path class="ae" d="m138.42,299.19c.42-.78.73-1.52.94-2.26.2-.74.31-1.47.31-2.19s-.11-1.44-.31-2.18c-.21-.74-.52-1.49-.94-2.27h1.45c.49.8.86,1.57,1.1,2.3.24.73.36,1.45.36,2.16s-.12,1.43-.36,2.15c-.24.72-.6,1.48-1.1,2.29h-1.45Z"/><g class="as"><line class="z" x1="35.5" y1="203.84" x2="202.9" y2="203.84"/></g><line class="x" x1="35.5" y1="203.84" x2="32" y2="203.84"/><polygon points="11.74 206.5 13.35 206.5 13.35 200.94 11.6 201.29 11.6 200.39 13.34 200.04 14.33 200.04 14.33 206.5 15.94 206.5 15.94 207.33 11.74 207.33 11.74 206.5"/><path d="m20.04,199.91c.81,0,1.43.33,1.87.97.43.65.65,1.59.65,2.81s-.22,2.17-.65,2.81c-.44.64-1.06.96-1.88.96s-1.44-.32-1.87-.96c-.43-.64-.64-1.58-.64-2.81s.21-2.16.64-2.81c.43-.64,1.06-.97,1.88-.97Zm0,.78c-.51,0-.89.25-1.15.75s-.38,1.25-.38,2.25.12,1.75.38,2.25.64.75,1.15.75.89-.25,1.15-.75c.25-.5.38-1.25.38-2.25s-.13-1.75-.38-2.25c-.26-.5-.64-.75-1.15-.75Z"/><path d="m26.16,200.75c.33.07.59.22.77.44s.28.5.28.83c0,.5-.18.9-.52,1.17-.35.27-.84.41-1.48.41-.22,0-.44-.02-.67-.06-.22-.04-.46-.1-.7-.18v-.67c.19.11.4.2.63.25.22.06.46.08.71.08.43,0,.76-.08.99-.25.22-.17.34-.42.34-.75,0-.29-.1-.53-.32-.7-.21-.17-.5-.26-.88-.26h-.59v-.57h.62c.34,0,.6-.06.78-.2.18-.13.27-.33.27-.59s-.1-.46-.28-.6c-.19-.14-.45-.21-.8-.21-.19,0-.39.02-.61.06-.22.04-.46.11-.71.19v-.62c.26-.07.5-.13.74-.16.22-.03.44-.06.65-.06.52,0,.93.12,1.24.36.31.24.46.56.46.97,0,.28-.08.52-.24.71s-.39.34-.69.41Z"/><g class="aq"><line class="z" x1="35.5" y1="124.02" x2="202.9" y2="124.02"/></g><line class="x" x1="35.5" y1="124.02" x2="32" y2="124.02"/><polygon points="11.74 127.09 13.35 127.09 13.35 121.53 11.6 121.88 11.6 120.98 13.34 120.63 14.33 120.63 14.33 127.09 15.94 127.09 15.94 127.92 11.74 127.92 11.74 127.09"/><path d="m20.04,120.5c.81,0,1.43.33,1.87.97.43.65.65,1.59.65,2.81s-.22,2.17-.65,2.81c-.44.64-1.06.96-1.88.96s-1.44-.32-1.87-.96c-.43-.64-.64-1.58-.64-2.81s.21-2.16.64-2.81c.43-.64,1.06-.97,1.88-.97Zm0,.78c-.51,0-.89.25-1.15.75s-.38,1.25-.38,2.25.12,1.75.38,2.25.64.75,1.15.75.89-.25,1.15-.75c.25-.5.38-1.25.38-2.25s-.13-1.75-.38-2.25c-.26-.5-.64-.75-1.15-.75Z"/><path d="m25.78,118.99h.87v3.32h.73v.57h-.73v1.2h-.69v-1.2h-2.3v-.67l2.12-3.23Zm.18.6l-1.74,2.72h1.74v-2.72Z"/><line class="aa" x1="35.5" y1="259.64" x2="33.5" y2="259.64"/><line class="aa" x1="35.5" y1="245.58" x2="33.5" y2="245.58"/><line class="aa" x1="35.5" y1="235.61" x2="33.5" y2="235.61"/><line class="aa" x1="35.5" y1="227.87" x2="33.5" y2="227.87"/><line class="aa" x1="35.5" y1="221.55" x2="33.5" y2="221.55"/><line class="aa" x1="35.5" y1="216.21" x2="33.5" y2="216.21"/><line class="aa" x1="35.5" y1="211.58" x2="33.5" y2="211.58"/><line class="aa" x1="35.5" y1="207.5" x2="33.5" y2="207.5"/><line class="aa" x1="35.5" y1="179.81" x2="33.5" y2="179.81"/><line class="aa" x1="35.5" y1="165.76" x2="33.5" y2="165.76"/><line class="aa" x1="35.5" y1="155.78" x2="33.5" y2="155.78"/><line class="aa" x1="35.5" y1="148.05" x2="33.5" y2="148.05"/><line class="aa" x1="35.5" y1="141.73" x2="33.5" y2="141.73"/><line class="aa" x1="35.5" y1="136.38" x2="33.5" y2="136.38"/><line class="aa" x1="35.5" y1="131.76" x2="33.5" y2="131.76"/><line class="aa" x1="35.5" y1="127.67" x2="33.5" y2="127.67"/><line class="aa" x1="35.5" y1="99.99" x2="33.5" y2="99.99"/><line class="aa" x1="35.5" y1="85.93" x2="33.5" y2="85.93"/><line class="aa" x1="35.5" y1="75.96" x2="33.5" y2="75.96"/><line class="aa" x1="35.5" y1="68.23" x2="33.5" y2="68.23"/><line class="aa" x1="35.5" y1="61.91" x2="33.5" y2="61.91"/><line class="aa" x1="35.5" y1="56.56" x2="33.5" y2="56.56"/><line class="aa" x1="35.5" y1="51.93" x2="33.5" y2="51.93"/><line class="aa" x1="35.5" y1="47.85" x2="33.5" y2="47.85"/><path class="ae" d="m7.02,164.51c.18.35.32.71.4,1.08.08.38.13.77.13,1.17,0,1.22-.33,2.18-1.01,2.89-.67.71-1.59,1.06-2.76,1.06s-2.08-.35-2.76-1.06c-.68-.71-1.02-1.67-1.02-2.89,0-.4.05-.79.14-1.17.09-.37.22-.73.4-1.08h1.51c-.24.35-.41.69-.52,1.03s-.17.7-.17,1.07c0,.68.22,1.21.65,1.59.43.38,1.02.57,1.77.57s1.35-.19,1.78-.57c.43-.38.64-.91.64-1.59,0-.37-.05-.73-.16-1.07s-.29-.68-.53-1.03h1.51Z"/><path class="ae" d="m1.82,160.43c0-.94.26-1.67.76-2.2.51-.53,1.21-.8,2.11-.8s1.61.27,2.11.8.75,1.26.75,2.2-.25,1.68-.75,2.21c-.5.54-1.21.8-2.11.8s-1.6-.26-2.11-.8c-.5-.53-.76-1.27-.76-2.21Zm1.25,0c0,.39.14.69.42.89s.68.3,1.2.3.93-.1,1.21-.3c.28-.2.41-.5.41-.89s-.13-.67-.41-.87c-.28-.2-.68-.31-1.21-.31s-.92.11-1.2.31-.42.49-.42.87Z"/><path class="ae" d="m2.12,151.89h1.33c-.15.38-.27.74-.35,1.08-.08.35-.12.68-.12.99,0,.34.05.58.13.74s.21.24.38.24c.14,0,.25-.06.32-.18.08-.12.13-.34.17-.66l.04-.31c.12-.89.3-1.49.56-1.8.26-.31.67-.47,1.23-.47s1.02.22,1.31.65c.29.43.43,1.07.43,1.92,0,.36-.03.74-.08,1.12-.05.39-.13.79-.25,1.19h-1.33c.18-.34.31-.7.39-1.07.08-.36.12-.74.12-1.12,0-.34-.04-.59-.14-.77-.09-.17-.23-.26-.42-.26-.16,0-.27.06-.35.18s-.14.36-.18.71l-.04.31c-.09.78-.27,1.32-.54,1.63-.26.32-.66.47-1.2.47-.58,0-1.01-.19-1.29-.59s-.42-1.01-.42-1.83c0-.32.03-.65.08-1.01s.12-.74.22-1.16Z"/><path class="ae" d="m.4,148.3h1.55v-1.8h1.25v1.8h2.32c.26,0,.43-.05.52-.15.09-.1.13-.3.13-.6v-.9h1.25v1.5c0,.69-.14,1.18-.43,1.47-.28.29-.77.43-1.47.43h-2.32v.87h-1.25v-.87H.4v-1.75Z"/><g class="an"><polyline class="u" points="43.11 77.57 73.54 120.22 103.98 158.19 134.42 206.21 164.85 256.42 195.29 258.1"/></g><line class="ab" x1="35.5" y1="269.61" x2="35.5" y2="47.85"/><line class="ab" x1="202.9" y1="269.61" x2="202.9" y2="47.85"/><line class="ab" x1="35.5" y1="269.61" x2="202.9" y2="269.61"/><line class="ab" x1="35.5" y1="47.85" x2="202.9" y2="47.85"/><rect class="ad" x="242.86" y="47.85" width="167.4" height="221.76"/><g class="am"><line class="z" x1="250.47" y1="269.61" x2="250.47" y2="47.85"/></g><line class="x" x1="250.47" y1="269.61" x2="250.47" y2="273.11"/><path d="m250.47,276.78c.81,0,1.43.33,1.87.97.43.65.65,1.59.65,2.81s-.22,2.17-.65,2.81c-.44.64-1.06.96-1.88.96s-1.44-.32-1.87-.96-.64-1.58-.64-2.81.21-2.16.64-2.81c.43-.64,1.06-.97,1.88-.97Zm0,.78c-.51,0-.89.25-1.15.75-.26.5-.38,1.25-.38,2.25s.12,1.75.38,2.25c.26.5.64.75,1.15.75s.89-.25,1.15-.75c.25-.5.38-1.25.38-2.25s-.13-1.75-.38-2.25c-.26-.5-.64-.75-1.15-.75Z"/><g class="ap"><line class="z" x1="288.74" y1="269.61" x2="288.74" y2="47.85"/></g><line class="x" x1="288.74" y1="269.61" x2="288.74" y2="273.11"/><path d="m283.46,276.91h3.87v.83h-2.97v1.79c.14-.05.29-.09.43-.11.14-.02.29-.04.43-.04.81,0,1.45.23,1.93.67.48.45.72,1.05.72,1.81s-.25,1.4-.74,1.83-1.18.64-2.06.64c-.31,0-.62-.03-.94-.07-.32-.05-.64-.12-.98-.23v-.99c.29.16.59.28.91.36.31.08.64.11.99.11.56,0,1.01-.14,1.34-.44.32-.3.49-.7.49-1.21s-.17-.9-.49-1.2c-.33-.3-.78-.45-1.34-.45-.26,0-.53.03-.79.09-.26.06-.53.15-.8.27v-3.66Z"/><path d="m291.92,276.78c.81,0,1.43.33,1.87.97.43.65.65,1.59.65,2.81s-.22,2.17-.65,2.81c-.44.64-1.06.96-1.88.96s-1.44-.32-1.87-.96-.64-1.58-.64-2.81.21-2.16.64-2.81c.43-.64,1.06-.97,1.88-.97Zm0,.78c-.51,0-.89.25-1.15.75s-.38,1.25-.38,2.25.12,1.75.38,2.25.64.75,1.15.75.89-.25,1.15-.75c.25-.5.38-1.25.38-2.25s-.13-1.75-.38-2.25c-.26-.5-.64-.75-1.15-.75Z"/><g class="ah"><line class="z" x1="327.01" y1="269.61" x2="327.01" y2="47.85"/></g><line class="x" x1="327.01" y1="269.61" x2="327.01" y2="273.11"/><polygon points="318.71 283.37 320.32 283.37 320.32 277.81 318.57 278.16 318.57 277.26 320.31 276.91 321.3 276.91 321.3 283.37 322.91 283.37 322.91 284.2 318.71 284.2 318.71 283.37"/><path d="m327.01,276.78c.81,0,1.43.33,1.87.97.43.65.65,1.59.65,2.81s-.22,2.17-.65,2.81c-.44.64-1.06.96-1.88.96s-1.44-.32-1.87-.96c-.43-.64-.64-1.58-.64-2.81s.21-2.16.64-2.81c.43-.64,1.06-.97,1.88-.97Zm0,.78c-.51,0-.89.25-1.15.75-.26.5-.38,1.25-.38,2.25s.12,1.75.38,2.25c.26.5.64.75,1.15.75s.89-.25,1.15-.75c.25-.5.38-1.25.38-2.25s-.13-1.75-.38-2.25c-.26-.5-.64-.75-1.15-.75Z"/><path d="m333.37,276.78c.81,0,1.43.33,1.87.97.43.65.65,1.59.65,2.81s-.22,2.17-.65,2.81c-.44.64-1.06.96-1.88.96s-1.44-.32-1.87-.96c-.43-.64-.64-1.58-.64-2.81s.21-2.16.64-2.81c.43-.64,1.06-.97,1.88-.97Zm0,.78c-.51,0-.89.25-1.15.75s-.38,1.25-.38,2.25.12,1.75.38,2.25.64.75,1.15.75.89-.25,1.15-.75c.25-.5.38-1.25.38-2.25s-.13-1.75-.38-2.25c-.26-.5-.64-.75-1.15-.75Z"/><g class="ai"><line class="z" x1="365.28" y1="269.61" x2="365.28" y2="47.85"/></g><line class="x" x1="365.28" y1="269.61" x2="365.28" y2="273.11"/><polygon points="356.98 283.37 358.59 283.37 358.59 277.81 356.84 278.16 356.84 277.26 358.58 276.91 359.57 276.91 359.57 283.37 361.18 283.37 361.18 284.2 356.98 284.2 356.98 283.37"/><path d="m363.18,276.91h3.87v.83h-2.97v1.79c.14-.05.29-.09.43-.11.14-.02.29-.04.43-.04.81,0,1.45.23,1.93.67.48.45.72,1.05.72,1.81s-.25,1.4-.74,1.83-1.18.64-2.06.64c-.31,0-.62-.03-.94-.07-.32-.05-.64-.12-.98-.23v-.99c.29.16.59.28.91.36.31.08.64.11.99.11.56,0,1.01-.14,1.34-.44.32-.3.49-.7.49-1.21s-.17-.9-.49-1.2c-.33-.3-.78-.45-1.34-.45-.26,0-.53.03-.79.09-.26.06-.53.15-.8.27v-3.66Z"/><path d="m371.64,276.78c.81,0,1.43.33,1.87.97.43.65.65,1.59.65,2.81s-.22,2.17-.65,2.81c-.44.64-1.06.96-1.88.96s-1.44-.32-1.87-.96c-.43-.64-.64-1.58-.64-2.81s.21-2.16.64-2.81c.43-.64,1.06-.97,1.88-.97Zm0,.78c-.51,0-.89.25-1.15.75s-.38,1.25-.38,2.25.12,1.75.38,2.25.64.75,1.15.75.89-.25,1.15-.75c.25-.5.38-1.25.38-2.25s-.13-1.75-.38-2.25c-.26-.5-.64-.75-1.15-.75Z"/><g class="ao"><line class="z" x1="403.55" y1="269.61" x2="403.55" y2="47.85"/></g><line class="x" x1="403.55" y1="269.61" x2="403.55" y2="273.11"/><path d="m395.94,283.37h3.44v.83h-4.63v-.83c.37-.38.88-.9,1.53-1.56.64-.65,1.05-1.07,1.22-1.26.32-.35.54-.65.66-.9.12-.24.19-.49.19-.73,0-.38-.14-.7-.41-.94-.27-.24-.62-.37-1.06-.37-.31,0-.64.06-.98.16-.34.11-.71.27-1.1.49v-1c.4-.16.77-.28,1.11-.36s.66-.12.95-.12c.75,0,1.35.19,1.8.57s.68.88.68,1.51c0,.3-.06.59-.17.85-.11.27-.31.59-.61.95-.08.1-.34.37-.78.82-.44.45-1.05,1.08-1.84,1.89Z"/><path d="m403.56,276.78c.81,0,1.43.33,1.87.97.43.65.65,1.59.65,2.81s-.22,2.17-.65,2.81c-.44.64-1.06.96-1.88.96s-1.44-.32-1.87-.96c-.43-.64-.64-1.58-.64-2.81s.21-2.16.64-2.81c.43-.64,1.06-.97,1.88-.97Zm0,.78c-.51,0-.89.25-1.15.75s-.38,1.25-.38,2.25.12,1.75.38,2.25.64.75,1.15.75.89-.25,1.15-.75c.25-.5.38-1.25.38-2.25s-.13-1.75-.38-2.25c-.26-.5-.64-.75-1.15-.75Z"/><path d="m409.92,276.78c.81,0,1.43.33,1.87.97.43.65.65,1.59.65,2.81s-.22,2.17-.65,2.81c-.44.64-1.06.96-1.88.96s-1.44-.32-1.87-.96c-.43-.64-.64-1.58-.64-2.81s.21-2.16.64-2.81c.43-.64,1.06-.97,1.88-.97Zm0,.78c-.51,0-.89.25-1.15.75s-.38,1.25-.38,2.25.12,1.75.38,2.25.64.75,1.15.75.89-.25,1.15-.75c.25-.5.38-1.25.38-2.25s-.13-1.75-.38-2.25c-.26-.5-.64-.75-1.15-.75Z"/><polygon class="ae" points="303.59 290.59 310.31 290.59 310.31 292.01 307.89 292.01 307.89 297.88 306.01 297.88 306.01 292.01 303.59 292.01 303.59 290.59"/><path class="ae" d="m311.2,290.28h1.75v1.43h-1.75v-1.43Zm0,2.13h1.75v5.47h-1.75v-5.47Z"/><path class="ae" d="m319.7,293.32c.22-.34.48-.59.78-.77.3-.18.64-.27,1.01-.27.62,0,1.1.2,1.43.58.33.39.5.95.5,1.69v3.33h-1.76v-2.85s0-.09,0-.13v-.2c0-.38-.06-.66-.17-.84-.12-.17-.3-.26-.55-.26-.34,0-.59.14-.77.41-.18.28-.28.67-.28,1.18v2.69h-1.76v-2.85c0-.6-.06-.99-.16-1.17-.1-.17-.29-.26-.55-.26-.34,0-.6.14-.78.41-.18.28-.27.67-.27,1.18v2.69h-1.76v-5.47h1.76v.8c.21-.3.46-.53.74-.69.28-.16.58-.24.92-.24.37,0,.7.1.99.28s.51.44.67.76Z"/><path class="ae" d="m328.71,294.55c0-.33-.1-.6-.29-.8-.2-.2-.45-.31-.76-.31-.34,0-.62.1-.83.29-.21.19-.34.46-.39.82h2.27Zm1.8.58v.5h-4.09c.04.41.19.72.45.92.25.21.6.31,1.06.31.36,0,.74-.05,1.13-.16.38-.11.78-.28,1.19-.5v1.35c-.42.16-.83.27-1.24.34-.42.08-.83.12-1.24.12-.99,0-1.76-.25-2.31-.75-.55-.5-.82-1.2-.82-2.11s.27-1.59.81-2.1c.54-.51,1.28-.77,2.22-.77.86,0,1.54.26,2.06.78.52.52.78,1.21.78,2.07Z"/><path class="ae" d="m338.24,299.19h-1.45c-.5-.81-.87-1.57-1.11-2.29-.24-.72-.35-1.43-.35-2.15s.12-1.43.36-2.16c.24-.73.6-1.5,1.1-2.3h1.45c-.42.78-.74,1.53-.94,2.27-.21.74-.31,1.46-.31,2.18s.1,1.45.31,2.19c.2.74.52,1.48.94,2.26Z"/><path class="ae" d="m344.15,292.58v1.33c-.38-.15-.74-.27-1.08-.35-.35-.08-.68-.12-.99-.12-.34,0-.58.05-.74.13s-.24.21-.24.38c0,.14.06.25.18.32.12.08.34.13.66.17l.31.04c.89.12,1.49.3,1.8.56.31.26.47.67.47,1.23s-.22,1.02-.65,1.31c-.43.29-1.07.43-1.92.43-.36,0-.74-.03-1.12-.08-.39-.05-.79-.13-1.19-.25v-1.33c.34.18.7.31,1.07.39.36.08.74.12,1.12.12.34,0,.59-.04.77-.14.17-.09.26-.23.26-.42,0-.16-.06-.27-.18-.35s-.36-.14-.71-.18l-.31-.04c-.78-.09-1.32-.27-1.63-.54-.32-.26-.47-.66-.47-1.2,0-.58.19-1.01.59-1.29s1.01-.42,1.83-.42c.32,0,.65.03,1.01.08s.74.12,1.16.22Z"/><path class="ae" d="m345.79,299.19c.42-.78.73-1.52.94-2.26.2-.74.31-1.47.31-2.19s-.11-1.44-.31-2.18c-.21-.74-.52-1.49-.94-2.27h1.45c.49.8.86,1.57,1.1,2.3.24.73.36,1.45.36,2.16s-.12,1.43-.36,2.15c-.24.72-.6,1.48-1.1,2.29h-1.45Z"/><g class="ag"><line class="z" x1="242.86" y1="203.84" x2="410.26" y2="203.84"/></g><line class="x" x1="242.86" y1="203.84" x2="239.36" y2="203.84"/><polygon points="219.1 206.5 220.71 206.5 220.71 200.94 218.96 201.29 218.96 200.39 220.7 200.04 221.69 200.04 221.69 206.5 223.3 206.5 223.3 207.33 219.1 207.33 219.1 206.5"/><path d="m227.4,199.91c.81,0,1.43.33,1.87.97.43.65.65,1.59.65,2.81s-.22,2.17-.65,2.81c-.44.64-1.06.96-1.88.96s-1.44-.32-1.87-.96c-.43-.64-.64-1.58-.64-2.81s.21-2.16.64-2.81c.43-.64,1.06-.97,1.88-.97Zm0,.78c-.51,0-.89.25-1.15.75s-.38,1.25-.38,2.25.12,1.75.38,2.25.64.75,1.15.75.89-.25,1.15-.75c.25-.5.38-1.25.38-2.25s-.13-1.75-.38-2.25c-.26-.5-.64-.75-1.15-.75Z"/><path d="m233.52,200.75c.33.07.59.22.77.44s.28.5.28.83c0,.5-.18.9-.52,1.17-.35.27-.84.41-1.48.41-.22,0-.44-.02-.67-.06-.22-.04-.46-.1-.7-.18v-.67c.19.11.4.2.63.25.22.06.46.08.71.08.43,0,.76-.08.99-.25.22-.17.34-.42.34-.75,0-.29-.1-.53-.32-.7-.21-.17-.5-.26-.88-.26h-.59v-.57h.62c.34,0,.6-.06.78-.2.18-.13.27-.33.27-.59s-.1-.46-.28-.6c-.19-.14-.45-.21-.8-.21-.19,0-.39.02-.61.06-.22.04-.46.11-.71.19v-.62c.26-.07.5-.13.74-.16.22-.03.44-.06.65-.06.52,0,.93.12,1.24.36.31.24.46.56.46.97,0,.28-.08.52-.24.71s-.39.34-.69.41Z"/><g class="al"><line class="z" x1="242.86" y1="124.02" x2="410.26" y2="124.02"/></g><line class="x" x1="242.86" y1="124.02" x2="239.36" y2="124.02"/><polygon points="219.1 127.09 220.71 127.09 220.71 121.53 218.96 121.88 218.96 120.98 220.7 120.63 221.69 120.63 221.69 127.09 223.3 127.09 223.3 127.92 219.1 127.92 219.1 127.09"/><path d="m227.4,120.5c.81,0,1.43.33,1.87.97.43.65.65,1.59.65,2.81s-.22,2.17-.65,2.81c-.44.64-1.06.96-1.88.96s-1.44-.32-1.87-.96c-.43-.64-.64-1.58-.64-2.81s.21-2.16.64-2.81c.43-.64,1.06-.97,1.88-.97Zm0,.78c-.51,0-.89.25-1.15.75s-.38,1.25-.38,2.25.12,1.75.38,2.25.64.75,1.15.75.89-.25,1.15-.75c.25-.5.38-1.25.38-2.25s-.13-1.75-.38-2.25c-.26-.5-.64-.75-1.15-.75Z"/><path d="m233.14,118.99h.87v3.32h.73v.57h-.73v1.2h-.69v-1.2h-2.3v-.67l2.12-3.23Zm.18.6l-1.74,2.72h1.74v-2.72Z"/><line class="aa" x1="242.86" y1="259.64" x2="240.86" y2="259.64"/><line class="aa" x1="242.86" y1="245.58" x2="240.86" y2="245.58"/><line class="aa" x1="242.86" y1="235.61" x2="240.86" y2="235.61"/><line class="aa" x1="242.86" y1="227.87" x2="240.86" y2="227.87"/><line class="aa" x1="242.86" y1="221.55" x2="240.86" y2="221.55"/><line class="aa" x1="242.86" y1="216.21" x2="240.86" y2="216.21"/><line class="aa" x1="242.86" y1="211.58" x2="240.86" y2="211.58"/><line class="aa" x1="242.86" y1="207.5" x2="240.86" y2="207.5"/><line class="aa" x1="242.86" y1="179.81" x2="240.86" y2="179.81"/><line class="aa" x1="242.86" y1="165.76" x2="240.86" y2="165.76"/><line class="aa" x1="242.86" y1="155.78" x2="240.86" y2="155.78"/><line class="aa" x1="242.86" y1="148.05" x2="240.86" y2="148.05"/><line class="aa" x1="242.86" y1="141.73" x2="240.86" y2="141.73"/><line class="aa" x1="242.86" y1="136.38" x2="240.86" y2="136.38"/><line class="aa" x1="242.86" y1="131.76" x2="240.86" y2="131.76"/><line class="aa" x1="242.86" y1="127.67" x2="240.86" y2="127.67"/><line class="aa" x1="242.86" y1="99.99" x2="240.86" y2="99.99"/><line class="aa" x1="242.86" y1="85.93" x2="240.86" y2="85.93"/><line class="aa" x1="242.86" y1="75.96" x2="240.86" y2="75.96"/><line class="aa" x1="242.86" y1="68.23" x2="240.86" y2="68.23"/><line class="aa" x1="242.86" y1="61.91" x2="240.86" y2="61.91"/><line class="aa" x1="242.86" y1="56.56" x2="240.86" y2="56.56"/><line class="aa" x1="242.86" y1="51.93" x2="240.86" y2="51.93"/><line class="aa" x1="242.86" y1="47.85" x2="240.86" y2="47.85"/><g class="aj"><polyline class="w" points="250.47 77.57 253.07 105.59 255.36 131.73 257.72 142.36 259.98 152.24 262.27 163.03 264.55 173.04 266.84 182.79 269.13 192.58 271.41 202.29 273.69 211.63 275.97 220.22 278.26 227.6 280.55 233.48 282.85 237.85 285.15 240.87 287.44 242.98 289.74 244.45 292.03 245.42 294.34 246.18 296.62 246.71 298.91 247.12 301.21 247.45 303.41 247.73 305.53 247.97 307.78 248.18 310.12 248.2 312.67 248.49 315.27 248.7 317.86 248.86 320.47 248.73 323.08 249.15 325.68 249.28 328.29 249.45 330.89 249.59 333.49 249.72 336.1 249.76 338.7 249.97 341.32 249.99 343.81 250.18 346.15 250.04 348.5 250.18 350.86 250.23 353.21 250.61 355.56 250.72 357.97 250.7 360.58 250.98 363.2 250.93 365.83 251.17 368.45 250.44 371.07 251.23 373.68 251.35 376.31 251.32 378.93 251.28 381.55 251.41 384.17 251.52 386.78 251.87 389.56 252.14 392.18 252.06 394.8 251.78 397.42 252.11 400.03 252.34 402.65 252.18"/></g><g class="af"><polyline class="y" points="250.47 77.57 252.92 53.68 255.02 90.18 257.23 125.56 259.8 153.73 262.39 177.94 264.97 195.08 267.55 206.69 270.14 215.01 272.92 219.73 275.51 223.16 278.09 225.95 280.67 228.39 283.26 230.62 285.85 232.7 288.47 234.66 290.83 236.52 293.13 238.28 295.45 239.93 297.76 241.49 300.08 242.56 302.39 243.54 304.82 244.55 307.43 246.2 310.04 247.54 312.65 248.57 315.25 249.47 317.86 250.26 320.47 250.76 323.08 235.83 325.68 233.63 328.28 240.11 330.88 246.17 333.49 232.43 336.1 236.85 338.7 237.12 341.3 246.51 344.08 250.95 346.68 214.81 349.29 222.66 351.89 241.07 354.49 237.52 357.1 207.42 359.71 220.08 362.31 217.19 364.93 219.59 367.53 231.46 370.14 214.36 372.75 227.59 375.35 216.19 377.95 207.12 380.55 208.37 383.17 215.13 385.78 202.54 388.38 229.37 391.15 221.91 393.76 201.52 396.35 209.58 398.98 224.07 401.56 184.78"/></g><g class="ak"><polyline class="v" points="250.47 77.57 274.15 211.8 297.89 223.68 321.24 239.69 346.4 252.38 372.76 255.71 399.54 256.98"/></g><line class="ab" x1="242.86" y1="269.61" x2="242.86" y2="47.85"/><line class="ab" x1="410.26" y1="269.61" x2="410.26" y2="47.85"/><line class="ab" x1="242.86" y1="269.61" x2="410.26" y2="269.61"/><line class="ab" x1="242.86" y1="47.85" x2="410.26" y2="47.85"/><g><path class="ac" d="m39.7,31.53h363.8c2.8,0,4.21-.34,4.21-1.01V1.51c0-.67-1.4-1.01-4.21-1.01H39.7c-2.8,0-4.21.34-4.21,1.01v29.02c0,.67,1.4,1.01,4.21,1.01Z"/><path class="t" d="m39.7,31.53h363.8c2.8,0,4.21-.34,4.21-1.01V1.51c0-.67-1.4-1.01-4.21-1.01H39.7c-2.8,0-4.21.34-4.21,1.01v29.02c0,.67,1.4,1.01,4.21,1.01Z"/></g><polyline class="u" points="42.03 8.64 52.08 8.64 62.13 8.64"/><polygon points="71.16 4.83 72.15 4.83 72.15 11.32 75.72 11.32 75.72 12.16 71.16 12.16 71.16 4.83"/><path d="m80.34,8.92c-.01-.49-.15-.88-.41-1.19-.27-.29-.63-.44-1.08-.44-.5,0-.9.15-1.21.43-.3.28-.48.68-.52,1.2h3.22Zm.9.26v.44h-4.15c.04.62.22,1.11.56,1.43.33.32.79.48,1.4.48.34,0,.68-.04,1.01-.12s.65-.21.97-.39v.85c-.32.14-.65.25-1,.31-.34.06-.69.1-1.04.1-.88,0-1.58-.25-2.09-.75s-.76-1.2-.76-2.07.24-1.61.72-2.14c.48-.52,1.15-.79,1.97-.79.74,0,1.33.24,1.76.71.42.48.64,1.13.64,1.94Z"/><polygon points="82.08 6.66 83.03 6.66 84.75 11.27 86.47 6.66 87.43 6.66 85.36 12.16 84.14 12.16 82.08 6.66"/><path d="m92.47,8.92c-.01-.49-.15-.88-.41-1.19-.27-.29-.63-.44-1.08-.44-.5,0-.9.15-1.21.43-.3.28-.48.68-.52,1.2h3.22Zm.9.26v.44h-4.15c.04.62.22,1.11.56,1.43.33.32.79.48,1.4.48.34,0,.68-.04,1.01-.12s.65-.21.97-.39v.85c-.32.14-.65.25-1,.31-.34.06-.69.1-1.04.1-.88,0-1.58-.25-2.09-.75s-.76-1.2-.76-2.07.24-1.61.72-2.14c.48-.52,1.15-.79,1.97-.79.74,0,1.33.24,1.76.71.42.48.64,1.13.64,1.94Z"/><path d="m99.43,8.84v3.32h-.9v-3.29c0-.52-.11-.9-.31-1.17s-.5-.39-.9-.39c-.49,0-.87.16-1.16.47-.28.31-.42.73-.42,1.27v3.11h-.9v-5.5h.9v.85c.21-.32.46-.57.76-.73.29-.16.63-.25,1.02-.25.62,0,1.11.2,1.43.59.32.39.49.96.49,1.72Z"/><path d="m102.1,7.49c.18-.32.42-.56.71-.72s.64-.24,1.05-.24c.66,0,1.21.27,1.63.79.41.53.62,1.23.62,2.09s-.21,1.57-.62,2.09c-.42.52-.96.78-1.63.78-.4,0-.75-.08-1.05-.23-.29-.15-.53-.39-.71-.72v.82h-.9v-7.64h.9v2.98Zm3.08,1.92c0-.66-.14-1.18-.41-1.56-.28-.38-.65-.57-1.13-.57s-.85.19-1.13.57c-.28.38-.41.89-.41,1.56s.13,1.19.41,1.57c.27.38.64.56,1.13.56s.84-.18,1.13-.56c.27-.38.41-.9.41-1.57Z"/><path d="m111.41,8.92c-.01-.49-.15-.88-.41-1.19-.27-.29-.63-.44-1.08-.44-.5,0-.9.15-1.21.43-.3.28-.48.68-.52,1.2h3.22Zm.9.26v.44h-4.15c.04.62.22,1.11.56,1.43.33.32.79.48,1.4.48.34,0,.68-.04,1.01-.12s.65-.21.97-.39v.85c-.32.14-.65.25-1,.31-.34.06-.69.1-1.04.1-.88,0-1.58-.25-2.09-.75s-.76-1.2-.76-2.07.24-1.61.72-2.14c.48-.52,1.15-.79,1.97-.79.74,0,1.33.24,1.76.71.42.48.64,1.13.64,1.94Z"/><path d="m116.98,7.5c-.1-.06-.21-.1-.33-.13-.12-.02-.25-.04-.39-.04-.51,0-.9.17-1.18.5-.28.33-.41.8-.41,1.43v2.89h-.9v-5.5h.9v.85c.18-.33.43-.58.73-.74.3-.16.67-.24,1.12-.24.06,0,.13.01.21.01.07.01.15.02.25.04v.92Z"/><path d="m122.27,11.47c0,.92-.21,1.62-.62,2.08-.42.45-1.06.68-1.91.68-.32,0-.61-.03-.89-.07-.28-.05-.56-.12-.82-.22v-.87c.26.14.52.24.78.31.26.07.52.11.79.11.58,0,1.03-.16,1.33-.46.29-.31.44-.77.44-1.4v-.44c-.19.32-.43.56-.72.72-.29.16-.63.24-1.04.24-.68,0-1.23-.25-1.64-.76s-.61-1.2-.61-2.05.2-1.53.61-2.04c.41-.51.95-.77,1.64-.77.4,0,.74.08,1.04.24s.53.4.72.72v-.83h.9v4.81Zm-.9-2.13c0-.64-.14-1.16-.4-1.52-.27-.36-.65-.54-1.14-.54s-.86.18-1.14.54-.4.87-.4,1.52.13,1.16.4,1.52c.27.36.65.54,1.14.54s.86-.18,1.14-.54c.26-.36.4-.86.4-1.52Z"/><rect x="123.67" y="9" width="2.64" height=".8"/><polygon points="127.79 4.83 129.27 4.83 131.14 9.81 133.02 4.83 134.5 4.83 134.5 12.16 133.53 12.16 133.53 5.72 131.64 10.75 130.65 10.75 128.76 5.72 128.76 12.16 127.79 12.16 127.79 4.83"/><path d="m140.73,9.02v3.14h-.9v-.83c-.21.34-.47.58-.77.73-.3.15-.68.23-1.13.23-.56,0-1.02-.15-1.35-.46-.33-.31-.49-.73-.49-1.27,0-.61.2-1.08.62-1.4.41-.31,1.03-.47,1.85-.47h1.27v-.09c0-.41-.14-.73-.41-.96-.27-.22-.65-.34-1.15-.34-.32,0-.62.04-.92.12-.3.08-.58.19-.85.33v-.83c.32-.12.64-.22.95-.28.31-.06.61-.1.91-.1.79,0,1.39.21,1.78.62.39.41.59,1.04.59,1.87Zm-1.8.37c-.73,0-1.24.09-1.52.25-.28.17-.42.45-.42.85,0,.32.1.58.31.76.21.19.5.28.86.28.5,0,.9-.17,1.21-.53.3-.35.45-.82.45-1.42v-.2h-.89Z"/><path d="m145.78,7.5c-.1-.06-.21-.1-.33-.13-.12-.02-.25-.04-.39-.04-.51,0-.9.17-1.18.5-.28.33-.41.8-.41,1.43v2.89h-.9v-5.5h.9v.85c.18-.33.43-.58.73-.74.3-.16.67-.24,1.12-.24.06,0,.13.01.21.01.07.01.15.02.25.04v.92Z"/><path d="m150.16,11.33c-.19.33-.43.57-.72.72-.29.15-.63.23-1.04.23-.66,0-1.21-.26-1.63-.78-.42-.52-.62-1.23-.62-2.09s.2-1.56.62-2.09c.42-.52.96-.79,1.63-.79.4,0,.74.08,1.04.24s.53.4.72.72v-.83h.9v7.58h-.9v-2.9Zm-3.08-1.92c0,.66.13,1.19.4,1.57.27.38.64.56,1.13.56s.85-.18,1.14-.56c.27-.38.41-.9.41-1.57s-.14-1.18-.41-1.56c-.28-.38-.65-.57-1.14-.57s-.85.19-1.13.57c-.27.38-.4.89-.4,1.56Z"/><path d="m155.11,6.53h0Zm-2.27,3.46v-3.33h.9v3.3c0,.52.1.9.3,1.17.2.26.5.39.91.39.48,0,.87-.15,1.16-.46.28-.31.42-.73.42-1.28v-3.12h.9v5.5h-.9v-.84c-.22.34-.48.58-.76.74-.29.15-.62.23-1.01.23-.63,0-1.12-.19-1.44-.58-.33-.38-.49-.95-.49-1.72Z"/><path d="m163.6,9.02v3.14h-.9v-.83c-.21.34-.47.58-.77.73-.3.15-.68.23-1.13.23-.56,0-1.02-.15-1.35-.46-.33-.31-.49-.73-.49-1.27,0-.61.2-1.08.62-1.4.41-.31,1.03-.47,1.85-.47h1.27v-.09c0-.41-.14-.73-.41-.96-.27-.22-.65-.34-1.15-.34-.32,0-.62.04-.92.12-.3.08-.58.19-.85.33v-.83c.32-.12.64-.22.95-.28.31-.06.61-.1.91-.1.79,0,1.39.21,1.78.62.39.41.59,1.04.59,1.87Zm-1.8.37c-.73,0-1.24.09-1.52.25-.28.17-.42.45-.42.85,0,.32.1.58.31.76.21.19.5.28.86.28.5,0,.9-.17,1.21-.53.3-.35.45-.82.45-1.42v-.2h-.89Z"/><path d="m168.65,7.5c-.1-.06-.21-.1-.33-.13-.12-.02-.25-.04-.39-.04-.51,0-.9.17-1.18.5-.28.33-.41.8-.41,1.43v2.89h-.9v-5.5h.9v.85c.18-.33.43-.58.73-.74.3-.16.67-.24,1.12-.24.06,0,.13.01.21.01.07.01.15.02.25.04v.92Z"/><path d="m169.96,9.41c0,.66.13,1.19.4,1.57.27.38.64.56,1.13.56s.85-.18,1.14-.56c.27-.38.41-.9.41-1.57s-.14-1.18-.41-1.56c-.28-.38-.65-.57-1.14-.57s-.85.19-1.13.57c-.27.38-.4.89-.4,1.56Zm3.08-1.92v-2.98h.9v7.64h-.9v-.82c-.19.33-.43.57-.72.72-.29.15-.63.23-1.04.23-.66,0-1.21-.26-1.63-.78-.42-.52-.62-1.23-.62-2.09s.2-1.56.62-2.09c.42-.52.96-.79,1.63-.79.4,0,.74.08,1.04.24s.53.4.72.72Z"/><path d="m176.69,5.1v1.56h1.86v.7h-1.86v2.99c0,.45.06.74.18.86.12.13.37.19.75.19h.92v.75h-.92c-.7,0-1.19-.13-1.45-.39-.26-.26-.39-.73-.39-1.42v-2.99h-.66v-.7h.66v-1.56h.9Z"/><path d="m185.1,4.53c-.44.76-.76,1.51-.97,2.24-.22.73-.32,1.48-.32,2.23s.1,1.51.32,2.24c.21.74.53,1.48.97,2.23h-.78c-.49-.77-.86-1.52-1.11-2.26-.24-.74-.36-1.48-.36-2.21s.12-1.46.36-2.2c.24-.74.6-1.5,1.11-2.27h.78Z"/><path d="m188.98,6.53c.78,0,1.4.26,1.85.76.44.51.67,1.22.67,2.12s-.23,1.61-.67,2.11c-.45.51-1.07.76-1.85.76s-1.42-.25-1.86-.76c-.44-.5-.66-1.21-.66-2.11s.22-1.61.66-2.12c.44-.5,1.07-.76,1.86-.76Zm0,.76c-.48,0-.86.19-1.15.57-.28.38-.42.89-.42,1.55s.13,1.18.41,1.56c.28.38.66.56,1.16.56s.86-.18,1.15-.56c.28-.38.42-.89.42-1.56s-.14-1.17-.42-1.55c-.28-.38-.66-.57-1.15-.57Z"/><path d="m195.18,6.53h0Zm-2.27,3.46v-3.33h.9v3.3c0,.52.1.9.3,1.17.2.26.5.39.91.39.48,0,.87-.15,1.16-.46.28-.31.42-.73.42-1.28v-3.12h.9v5.5h-.9v-.84c-.22.34-.48.58-.76.74-.29.15-.62.23-1.01.23-.63,0-1.12-.19-1.44-.58-.33-.38-.49-.95-.49-1.72Z"/><path d="m202.56,7.5c-.1-.06-.21-.1-.33-.13-.12-.02-.25-.04-.39-.04-.51,0-.9.17-1.18.5-.28.33-.41.8-.41,1.43v2.89h-.9v-5.5h.9v.85c.18-.33.43-.58.73-.74.3-.16.67-.24,1.12-.24.06,0,.13.01.21.01.07.01.15.02.25.04v.92Z"/><path d="m207.01,6.82v.85c-.26-.12-.52-.22-.79-.29-.28-.06-.56-.1-.85-.1-.45,0-.79.07-1.02.21-.22.14-.33.34-.33.61,0,.21.08.37.24.49.16.12.48.24.96.34l.31.07c.64.14,1.1.34,1.37.58.26.25.4.6.4,1.05,0,.51-.2.91-.6,1.21-.4.3-.96.44-1.67.44-.3,0-.6-.03-.92-.08-.32-.05-.65-.13-1.01-.25v-.93c.33.18.66.31.98.39.32.09.64.13.96.13.42,0,.75-.07.98-.21.22-.14.34-.35.34-.62,0-.24-.09-.43-.25-.56s-.52-.26-1.09-.38l-.31-.07c-.56-.12-.97-.3-1.22-.54-.25-.24-.37-.57-.37-1.01,0-.51.18-.91.54-1.2s.88-.42,1.57-.42c.33,0,.64.03.94.08.29.05.56.12.81.21Z"/><path d="m208.6,4.53h.78c.48.77.85,1.53,1.1,2.27.24.74.37,1.48.37,2.2s-.13,1.47-.37,2.21c-.24.74-.61,1.49-1.1,2.26h-.78c.43-.75.75-1.49.97-2.23.21-.73.32-1.48.32-2.24s-.11-1.5-.32-2.23c-.22-.73-.54-1.48-.97-2.24Z"/><polyline class="w" points="232.61 8.89 242.66 8.89 252.71 8.89"/><path d="m262.59,5.36v1.56h1.86v.7h-1.86v2.99c0,.45.06.74.18.86.12.13.37.19.75.19h.92v.75h-.92c-.7,0-1.19-.13-1.45-.39-.26-.26-.39-.73-.39-1.42v-2.99h-.66v-.7h.66v-1.56h.9Z"/><path d="m267.77,6.78c.78,0,1.4.26,1.85.76.44.51.67,1.22.67,2.12s-.23,1.61-.67,2.11c-.45.51-1.07.76-1.85.76s-1.42-.25-1.86-.76c-.44-.5-.66-1.21-.66-2.11s.22-1.61.66-2.12c.44-.5,1.07-.76,1.86-.76Zm0,.76c-.48,0-.86.19-1.15.57-.28.38-.42.89-.42,1.55s.13,1.18.41,1.56c.28.38.66.56,1.16.56s.86-.18,1.15-.56c.28-.38.42-.89.42-1.56s-.14-1.17-.42-1.55c-.28-.38-.66-.57-1.15-.57Z"/><path d="m274.98,7.76c-.1-.06-.21-.1-.33-.13-.12-.02-.25-.04-.39-.04-.51,0-.9.17-1.18.5-.28.33-.41.8-.41,1.43v2.89h-.9v-5.5h.9v.85c.18-.33.43-.58.73-.74.3-.16.67-.24,1.12-.24.06,0,.13.01.21.01.07.01.15.02.25.04v.92Z"/><path d="m279.66,7.13v.84c-.26-.14-.51-.24-.77-.31s-.51-.11-.77-.11c-.58,0-1.05.19-1.37.56-.32.37-.48.89-.48,1.56s.16,1.2.48,1.57c.32.37.78.55,1.37.55.26,0,.51-.03.77-.1s.51-.18.77-.32v.83c-.26.12-.52.21-.78.26-.27.05-.56.08-.86.08-.82,0-1.49-.25-1.97-.77-.49-.51-.73-1.22-.73-2.1s.24-1.6.73-2.11c.49-.51,1.17-.77,2.03-.77.28,0,.55.03.81.09s.52.14.77.25Z"/><path d="m285.81,9.09v3.32h-.9v-3.29c0-.52-.11-.9-.31-1.17s-.5-.39-.9-.39c-.49,0-.87.16-1.16.47-.28.31-.42.73-.42,1.27v3.11h-.9v-7.64h.9v3c.21-.32.46-.57.76-.73.29-.16.63-.25,1.02-.25.62,0,1.11.2,1.43.59.32.39.49.96.49,1.72Z"/><rect x="287.74" y="11.17" width="1.04" height="1.25"/><path d="m292.93,6.78c.78,0,1.4.26,1.85.76.44.51.67,1.22.67,2.12s-.23,1.61-.67,2.11c-.45.51-1.07.76-1.85.76s-1.42-.25-1.86-.76c-.44-.5-.66-1.21-.66-2.11s.22-1.61.66-2.12c.44-.5,1.07-.76,1.86-.76Zm0,.76c-.48,0-.86.19-1.15.57-.28.38-.42.89-.42,1.55s.13,1.18.41,1.56c.28.38.66.56,1.16.56s.86-.18,1.15-.56c.28-.38.42-.89.42-1.56s-.14-1.17-.42-1.55c-.28-.38-.66-.57-1.15-.57Z"/><path d="m300.9,9.67c0-.66-.14-1.18-.41-1.56-.28-.38-.65-.57-1.13-.57s-.85.19-1.13.57c-.28.38-.41.89-.41,1.56s.13,1.19.41,1.57c.27.38.64.56,1.13.56s.84-.18,1.13-.56c.27-.38.41-.9.41-1.57Zm-3.08,1.92v2.9h-.9v-7.58h.9v.83c.18-.32.42-.56.71-.72s.64-.24,1.05-.24c.66,0,1.21.27,1.63.79.41.53.62,1.23.62,2.09s-.21,1.57-.62,2.09c-.42.52-.96.78-1.63.78-.4,0-.75-.08-1.05-.23-.29-.15-.53-.39-.71-.72Z"/><path d="m304.23,5.36v1.56h1.86v.7h-1.86v2.99c0,.45.06.74.18.86.12.13.37.19.75.19h.92v.75h-.92c-.7,0-1.19-.13-1.45-.39-.26-.26-.39-.73-.39-1.42v-2.99h-.66v-.7h.66v-1.56h.9Z"/><path d="m307.27,4.77h.9v1.15h-.9v-1.15Zm0,2.14h.9v5.5h-.9v-5.5Z"/><path d="m314.35,7.97c.22-.4.49-.69.8-.89.31-.19.68-.29,1.12-.29.56,0,1.01.2,1.32.6.31.4.47.97.47,1.71v3.32h-.9v-3.29c0-.52-.1-.91-.28-1.18-.19-.25-.47-.38-.85-.38-.47,0-.84.16-1.12.47-.27.31-.4.73-.4,1.27v3.11h-.9v-3.29c0-.52-.1-.91-.28-1.18-.19-.25-.48-.38-.86-.38-.46,0-.83.16-1.11.47-.27.31-.4.73-.4,1.27v3.11h-.9v-5.5h.9v.85c.2-.33.45-.58.74-.74.28-.16.62-.24,1.03-.24s.73.1,1.02.3.48.5.62.88Z"/><rect x="319.99" y="11.17" width="1.04" height="1.25"/><path d="m324.98,5.08h1.13l2.79,7.33h-1.04l-.66-1.88h-3.31l-.66,1.88h-1.05l2.79-7.33Zm.56.97l-1.35,3.65h2.69l-1.35-3.65Z"/><path d="m330.3,9.67c0,.66.13,1.19.4,1.57.27.38.64.56,1.13.56s.85-.18,1.14-.56c.27-.38.41-.9.41-1.57s-.14-1.18-.41-1.56c-.28-.38-.65-.57-1.14-.57s-.85.19-1.13.57c-.27.38-.4.89-.4,1.56Zm3.08-1.92v-2.98h.9v7.64h-.9v-.82c-.19.33-.43.57-.72.72-.29.15-.63.23-1.04.23-.66,0-1.21-.26-1.63-.78-.42-.52-.62-1.23-.62-2.09s.2-1.56.62-2.09c.42-.52.96-.79,1.63-.79.4,0,.74.08,1.04.24s.53.4.72.72Z"/><path d="m340.44,9.28v3.14h-.9v-.83c-.21.34-.47.58-.77.73-.3.15-.68.23-1.13.23-.56,0-1.02-.15-1.35-.46-.33-.31-.49-.73-.49-1.27,0-.61.2-1.08.62-1.4.41-.31,1.03-.47,1.85-.47h1.27v-.09c0-.41-.14-.73-.41-.96-.27-.22-.65-.34-1.15-.34-.32,0-.62.04-.92.12-.3.08-.58.19-.85.33v-.83c.32-.12.64-.22.95-.28.31-.06.61-.1.91-.1.79,0,1.39.21,1.78.62.39.41.59,1.04.59,1.87Zm-1.8.37c-.73,0-1.24.09-1.52.25-.28.17-.42.45-.42.85,0,.32.1.58.31.76.21.19.5.28.86.28.5,0,.9-.17,1.21-.53.3-.35.45-.82.45-1.42v-.2h-.89Z"/><path d="m346.58,7.97c.22-.4.49-.69.8-.89.31-.19.68-.29,1.12-.29.56,0,1.01.2,1.32.6.31.4.47.97.47,1.71v3.32h-.9v-3.29c0-.52-.1-.91-.28-1.18-.19-.25-.47-.38-.85-.38-.47,0-.84.16-1.12.47-.27.31-.4.73-.4,1.27v3.11h-.9v-3.29c0-.52-.1-.91-.28-1.18-.19-.25-.48-.38-.86-.38-.46,0-.83.16-1.11.47-.27.31-.4.73-.4,1.27v3.11h-.9v-5.5h.9v.85c.2-.33.45-.58.74-.74.28-.16.62-.24,1.03-.24s.73.1,1.02.3.48.5.62.88Z"/><path d="m357.45,4.78c-.44.76-.76,1.51-.97,2.24-.22.73-.32,1.48-.32,2.23s.1,1.51.32,2.24c.21.74.53,1.48.97,2.23h-.78c-.49-.77-.86-1.52-1.11-2.26-.24-.74-.36-1.48-.36-2.21s.12-1.46.36-2.2c.24-.74.6-1.5,1.11-2.27h.78Z"/><rect x="359.2" y="4.77" width=".9" height="7.64"/><path d="m365.18,7.76c-.1-.06-.21-.1-.33-.13-.12-.02-.25-.04-.39-.04-.51,0-.9.17-1.18.5-.28.33-.41.8-.41,1.43v2.89h-.9v-5.5h.9v.85c.18-.33.43-.58.73-.74.3-.16.67-.24,1.12-.24.06,0,.13.01.21.01.07.01.15.02.25.04v.92Z"/><path d="m366.25,9.85h6.29v.83h-6.29v-.83Zm0-2h6.29v.82h-6.29v-.82Z"/><polygon points="374.85 11.58 376.47 11.58 376.47 5.99 374.71 6.34 374.71 5.44 376.46 5.08 377.45 5.08 377.45 11.58 379.07 11.58 379.07 12.41 374.85 12.41 374.85 11.58"/><path d="m384.74,9.18c-.01-.49-.15-.88-.41-1.19-.27-.29-.63-.44-1.08-.44-.5,0-.9.15-1.21.43-.3.28-.48.68-.52,1.2h3.22Zm.9.26v.44h-4.15c.04.62.22,1.11.56,1.43.33.32.79.48,1.4.48.34,0,.68-.04,1.01-.12s.65-.21.97-.39v.85c-.32.14-.65.25-1,.31-.34.06-.69.1-1.04.1-.88,0-1.58-.25-2.09-.75s-.76-1.2-.76-2.07.24-1.61.72-2.14c.48-.52,1.15-.79,1.97-.79.74,0,1.33.24,1.76.71.42.48.64,1.13.64,1.94Z"/><rect x="386.67" y="9.26" width="2.64" height=".8"/><path d="m391.74,11.58h3.46v.83h-4.65v-.83c.37-.38.88-.9,1.54-1.57.64-.65,1.06-1.08,1.23-1.27.32-.35.54-.65.66-.9.12-.24.19-.49.19-.73,0-.38-.14-.7-.41-.94-.27-.24-.62-.37-1.07-.37-.31,0-.64.06-.98.16-.34.11-.71.27-1.11.49v-1.01c.4-.16.77-.28,1.12-.36s.66-.12.95-.12c.75,0,1.36.19,1.81.57.45.38.68.88.68,1.52,0,.3-.06.59-.17.85-.11.27-.31.59-.61.95-.08.1-.34.37-.78.82-.44.45-1.06,1.09-1.85,1.9Z"/><path d="m397,4.78h.78c.48.77.85,1.53,1.1,2.27.24.74.37,1.48.37,2.2s-.13,1.47-.37,2.21c-.24.74-.61,1.49-1.1,2.26h-.78c.43-.75.75-1.49.97-2.23.21-.73.32-1.48.32-2.24s-.11-1.5-.32-2.23c-.22-.73-.54-1.48-.97-2.24Z"/><polyline class="y" points="232.61 23.66 242.66 23.66 252.71 23.66"/><path d="m262.59,20.12v1.56h1.86v.7h-1.86v2.99c0,.45.06.74.18.86.12.13.37.19.75.19h.92v.75h-.92c-.7,0-1.19-.13-1.45-.39-.26-.26-.39-.73-.39-1.42v-2.99h-.66v-.7h.66v-1.56h.9Z"/><path d="m267.77,21.55c.78,0,1.4.26,1.85.76.44.51.67,1.22.67,2.12s-.23,1.61-.67,2.11c-.45.51-1.07.76-1.85.76s-1.42-.25-1.86-.76c-.44-.5-.66-1.21-.66-2.11s.22-1.61.66-2.12c.44-.5,1.07-.76,1.86-.76Zm0,.76c-.48,0-.86.19-1.15.57-.28.38-.42.89-.42,1.55s.13,1.18.41,1.56c.28.38.66.56,1.16.56s.86-.18,1.15-.56c.28-.38.42-.89.42-1.56s-.14-1.17-.42-1.55c-.28-.38-.66-.57-1.15-.57Z"/><path d="m274.98,22.52c-.1-.06-.21-.1-.33-.13-.12-.02-.25-.04-.39-.04-.51,0-.9.17-1.18.5-.28.33-.41.8-.41,1.43v2.89h-.9v-5.5h.9v.85c.18-.33.43-.58.73-.74.3-.16.67-.24,1.12-.24.06,0,.13.01.21.01.07.01.15.02.25.04v.92Z"/><path d="m279.66,21.89v.84c-.26-.14-.51-.24-.77-.31s-.51-.11-.77-.11c-.58,0-1.05.19-1.37.56-.32.37-.48.89-.48,1.56s.16,1.2.48,1.57c.32.37.78.55,1.37.55.26,0,.51-.03.77-.1s.51-.18.77-.32v.83c-.26.12-.52.21-.78.26-.27.05-.56.08-.86.08-.82,0-1.49-.25-1.97-.77-.49-.51-.73-1.22-.73-2.1s.24-1.6.73-2.11c.49-.51,1.17-.77,2.03-.77.28,0,.55.03.81.09s.52.14.77.25Z"/><path d="m285.81,23.86v3.32h-.9v-3.29c0-.52-.11-.9-.31-1.17s-.5-.39-.9-.39c-.49,0-.87.16-1.16.47-.28.31-.42.73-.42,1.27v3.11h-.9v-7.64h.9v3c.21-.32.46-.57.76-.73.29-.16.63-.25,1.02-.25.62,0,1.11.2,1.43.59.32.39.49.96.49,1.72Z"/><rect x="287.74" y="25.93" width="1.04" height="1.25"/><path d="m292.93,21.55c.78,0,1.4.26,1.85.76.44.51.67,1.22.67,2.12s-.23,1.61-.67,2.11c-.45.51-1.07.76-1.85.76s-1.42-.25-1.86-.76c-.44-.5-.66-1.21-.66-2.11s.22-1.61.66-2.12c.44-.5,1.07-.76,1.86-.76Zm0,.76c-.48,0-.86.19-1.15.57-.28.38-.42.89-.42,1.55s.13,1.18.41,1.56c.28.38.66.56,1.16.56s.86-.18,1.15-.56c.28-.38.42-.89.42-1.56s-.14-1.17-.42-1.55c-.28-.38-.66-.57-1.15-.57Z"/><path d="m300.9,24.43c0-.66-.14-1.18-.41-1.56-.28-.38-.65-.57-1.13-.57s-.85.19-1.13.57c-.28.38-.41.89-.41,1.56s.13,1.19.41,1.57c.27.38.64.56,1.13.56s.84-.18,1.13-.56c.27-.38.41-.9.41-1.57Zm-3.08,1.92v2.9h-.9v-7.58h.9v.83c.18-.32.42-.56.71-.72s.64-.24,1.05-.24c.66,0,1.21.27,1.63.79.41.53.62,1.23.62,2.09s-.21,1.57-.62,2.09c-.42.52-.96.78-1.63.78-.4,0-.75-.08-1.05-.23-.29-.15-.53-.39-.71-.72Z"/><path d="m304.23,20.12v1.56h1.86v.7h-1.86v2.99c0,.45.06.74.18.86.12.13.37.19.75.19h.92v.75h-.92c-.7,0-1.19-.13-1.45-.39-.26-.26-.39-.73-.39-1.42v-2.99h-.66v-.7h.66v-1.56h.9Z"/><path d="m307.27,19.54h.9v1.15h-.9v-1.15Zm0,2.14h.9v5.5h-.9v-5.5Z"/><path d="m314.35,22.73c.22-.4.49-.69.8-.89.31-.19.68-.29,1.12-.29.56,0,1.01.2,1.32.6.31.4.47.97.47,1.71v3.32h-.9v-3.29c0-.52-.1-.91-.28-1.18-.19-.25-.47-.38-.85-.38-.47,0-.84.16-1.12.47-.27.31-.4.73-.4,1.27v3.11h-.9v-3.29c0-.52-.1-.91-.28-1.18-.19-.25-.48-.38-.86-.38-.46,0-.83.16-1.11.47-.27.31-.4.73-.4,1.27v3.11h-.9v-5.5h.9v.85c.2-.33.45-.58.74-.74.28-.16.62-.24,1.03-.24s.73.1,1.02.3.48.5.62.88Z"/><rect x="319.99" y="25.93" width="1.04" height="1.25"/><path d="m324.98,19.85h1.13l2.79,7.33h-1.04l-.66-1.88h-3.31l-.66,1.88h-1.05l2.79-7.33Zm.56.97l-1.35,3.65h2.69l-1.35-3.65Z"/><path d="m330.3,24.43c0,.66.13,1.19.4,1.57.27.38.64.56,1.13.56s.85-.18,1.14-.56c.27-.38.41-.9.41-1.57s-.14-1.18-.41-1.56c-.28-.38-.65-.57-1.14-.57s-.85.19-1.13.57c-.27.38-.4.89-.4,1.56Zm3.08-1.92v-2.98h.9v7.64h-.9v-.82c-.19.33-.43.57-.72.72-.29.15-.63.23-1.04.23-.66,0-1.21-.26-1.63-.78-.42-.52-.62-1.23-.62-2.09s.2-1.56.62-2.09c.42-.52.96-.79,1.63-.79.4,0,.74.08,1.04.24s.53.4.72.72Z"/><path d="m340.44,24.04v3.14h-.9v-.83c-.21.34-.47.58-.77.73-.3.15-.68.23-1.13.23-.56,0-1.02-.15-1.35-.46-.33-.31-.49-.73-.49-1.27,0-.61.2-1.08.62-1.4.41-.31,1.03-.47,1.85-.47h1.27v-.09c0-.41-.14-.73-.41-.96-.27-.22-.65-.34-1.15-.34-.32,0-.62.04-.92.12-.3.08-.58.19-.85.33v-.83c.32-.12.64-.22.95-.28.31-.06.61-.1.91-.1.79,0,1.39.21,1.78.62.39.41.59,1.04.59,1.87Zm-1.8.37c-.73,0-1.24.09-1.52.25-.28.17-.42.45-.42.85,0,.32.1.58.31.76.21.19.5.28.86.28.5,0,.9-.17,1.21-.53.3-.35.45-.82.45-1.42v-.2h-.89Z"/><path d="m346.58,22.73c.22-.4.49-.69.8-.89.31-.19.68-.29,1.12-.29.56,0,1.01.2,1.32.6.31.4.47.97.47,1.71v3.32h-.9v-3.29c0-.52-.1-.91-.28-1.18-.19-.25-.47-.38-.85-.38-.47,0-.84.16-1.12.47-.27.31-.4.73-.4,1.27v3.11h-.9v-3.29c0-.52-.1-.91-.28-1.18-.19-.25-.48-.38-.86-.38-.46,0-.83.16-1.11.47-.27.31-.4.73-.4,1.27v3.11h-.9v-5.5h.9v.85c.2-.33.45-.58.74-.74.28-.16.62-.24,1.03-.24s.73.1,1.02.3.48.5.62.88Z"/><path d="m357.45,19.55c-.44.76-.76,1.51-.97,2.24-.22.73-.32,1.48-.32,2.23s.1,1.51.32,2.24c.21.74.53,1.48.97,2.23h-.78c-.49-.77-.86-1.52-1.11-2.26-.24-.74-.36-1.48-.36-2.21s.12-1.46.36-2.2c.24-.74.6-1.5,1.11-2.27h.78Z"/><rect x="359.2" y="19.54" width=".9" height="7.64"/><path d="m365.18,22.52c-.1-.06-.21-.1-.33-.13-.12-.02-.25-.04-.39-.04-.51,0-.9.17-1.18.5-.28.33-.41.8-.41,1.43v2.89h-.9v-5.5h.9v.85c.18-.33.43-.58.73-.74.3-.16.67-.24,1.12-.24.06,0,.13.01.21.01.07.01.15.02.25.04v.92Z"/><path d="m366.25,24.61h6.29v.83h-6.29v-.83Zm0-2h6.29v.82h-6.29v-.82Z"/><polygon points="374.85 26.34 376.47 26.34 376.47 20.75 374.71 21.1 374.71 20.2 376.46 19.85 377.45 19.85 377.45 26.34 379.07 26.34 379.07 27.17 374.85 27.17 374.85 26.34"/><path d="m384.74,23.94c-.01-.49-.15-.88-.41-1.19-.27-.29-.63-.44-1.08-.44-.5,0-.9.15-1.21.43-.3.28-.48.68-.52,1.2h3.22Zm.9.26v.44h-4.15c.04.62.22,1.11.56,1.43.33.32.79.48,1.4.48.34,0,.68-.04,1.01-.12s.65-.21.97-.39v.85c-.32.14-.65.25-1,.31-.34.06-.69.1-1.04.1-.88,0-1.58-.25-2.09-.75s-.76-1.2-.76-2.07.24-1.61.72-2.14c.48-.52,1.15-.79,1.97-.79.74,0,1.33.24,1.76.71.42.48.64,1.13.64,1.94Z"/><rect x="386.67" y="24.02" width="2.64" height=".8"/><polygon points="391.05 26.34 392.67 26.34 392.67 20.75 390.91 21.1 390.91 20.2 392.66 19.85 393.66 19.85 393.66 26.34 395.27 26.34 395.27 27.17 391.05 27.17 391.05 26.34"/><path d="m397,19.55h.78c.48.77.85,1.53,1.1,2.27.24.74.37,1.48.37,2.2s-.13,1.47-.37,2.21c-.24.74-.61,1.49-1.1,2.26h-.78c.43-.75.75-1.49.97-2.23.21-.73.32-1.48.32-2.24s-.11-1.5-.32-2.23c-.22-.73-.54-1.48-.97-2.24Z"/><polyline class="v" points="42.03 24.03 52.08 24.03 62.13 24.03"/><path d="m72.01,20.49v1.56h1.86v.7h-1.86v2.99c0,.45.06.74.18.86.12.13.37.19.75.19h.92v.75h-.92c-.7,0-1.19-.13-1.45-.39-.26-.26-.39-.73-.39-1.42v-2.99h-.66v-.7h.66v-1.56h.9Z"/><path d="m77.19,21.92c.78,0,1.4.26,1.85.76.44.51.67,1.22.67,2.12s-.23,1.61-.67,2.11c-.45.51-1.07.76-1.85.76s-1.42-.25-1.86-.76c-.44-.5-.66-1.21-.66-2.11s.22-1.61.66-2.12c.44-.5,1.07-.76,1.86-.76Zm0,.76c-.48,0-.86.19-1.15.57-.28.38-.42.89-.42,1.55s.13,1.18.41,1.56c.28.38.66.56,1.16.56s.86-.18,1.15-.56c.28-.38.42-.89.42-1.56s-.14-1.17-.42-1.55c-.28-.38-.66-.57-1.15-.57Z"/><path d="m84.4,22.89c-.1-.06-.21-.1-.33-.13-.12-.02-.25-.04-.39-.04-.51,0-.9.17-1.18.5-.28.33-.41.8-.41,1.43v2.89h-.9v-5.5h.9v.85c.18-.33.43-.58.73-.74.3-.16.67-.24,1.12-.24.06,0,.13.01.21.01.07.01.15.02.25.04v.92Z"/><path d="m89.08,22.26v.84c-.26-.14-.51-.24-.77-.31s-.51-.11-.77-.11c-.58,0-1.05.19-1.37.56-.32.37-.48.89-.48,1.56s.16,1.2.48,1.57c.32.37.78.55,1.37.55.26,0,.51-.03.77-.1s.51-.18.77-.32v.83c-.26.12-.52.21-.78.26-.27.05-.56.08-.86.08-.82,0-1.49-.25-1.97-.77-.49-.51-.73-1.22-.73-2.1s.24-1.6.73-2.11c.49-.51,1.17-.77,2.03-.77.28,0,.55.03.81.09s.52.14.77.25Z"/><path d="m95.23,24.23v3.32h-.9v-3.29c0-.52-.11-.9-.31-1.17s-.5-.39-.9-.39c-.49,0-.87.16-1.16.47-.28.31-.42.73-.42,1.27v3.11h-.9v-7.64h.9v3c.21-.32.46-.57.76-.73.29-.16.63-.25,1.02-.25.62,0,1.11.2,1.43.59.32.39.49.96.49,1.72Z"/><rect x="97.16" y="26.3" width="1.04" height="1.25"/><path d="m102.35,21.92c.78,0,1.4.26,1.85.76.44.51.67,1.22.67,2.12s-.23,1.61-.67,2.11c-.45.51-1.07.76-1.85.76s-1.42-.25-1.86-.76c-.44-.5-.66-1.21-.66-2.11s.22-1.61.66-2.12c.44-.5,1.07-.76,1.86-.76Zm0,.76c-.48,0-.86.19-1.15.57-.28.38-.42.89-.42,1.55s.13,1.18.41,1.56c.28.38.66.56,1.16.56s.86-.18,1.15-.56c.28-.38.42-.89.42-1.56s-.14-1.17-.42-1.55c-.28-.38-.66-.57-1.15-.57Z"/><path d="m110.32,24.8c0-.66-.14-1.18-.41-1.56-.28-.38-.65-.57-1.13-.57s-.85.19-1.13.57c-.28.38-.41.89-.41,1.56s.13,1.19.41,1.57c.27.38.64.56,1.13.56s.84-.18,1.13-.56c.27-.38.41-.9.41-1.57Zm-3.08,1.92v2.9h-.9v-7.58h.9v.83c.18-.32.42-.56.71-.72s.64-.24,1.05-.24c.66,0,1.21.27,1.63.79.41.53.62,1.23.62,2.09s-.21,1.57-.62,2.09c-.42.52-.96.78-1.63.78-.4,0-.75-.08-1.05-.23-.29-.15-.53-.39-.71-.72Z"/><path d="m113.65,20.49v1.56h1.86v.7h-1.86v2.99c0,.45.06.74.18.86.12.13.37.19.75.19h.92v.75h-.92c-.7,0-1.19-.13-1.45-.39-.26-.26-.39-.73-.39-1.42v-2.99h-.66v-.7h.66v-1.56h.9Z"/><path d="m116.69,19.91h.9v1.15h-.9v-1.15Zm0,2.14h.9v5.5h-.9v-5.5Z"/><path d="m123.77,23.1c.22-.4.49-.69.8-.89.31-.19.68-.29,1.12-.29.56,0,1.01.2,1.32.6.31.4.47.97.47,1.71v3.32h-.9v-3.29c0-.52-.1-.91-.28-1.18-.19-.25-.47-.38-.85-.38-.47,0-.84.16-1.12.47-.27.31-.4.73-.4,1.27v3.11h-.9v-3.29c0-.52-.1-.91-.28-1.18-.19-.25-.48-.38-.86-.38-.46,0-.83.16-1.11.47-.27.31-.4.73-.4,1.27v3.11h-.9v-5.5h.9v.85c.2-.33.45-.58.74-.74.28-.16.62-.24,1.03-.24s.73.1,1.02.3.48.5.62.88Z"/><rect x="129.41" y="26.3" width="1.04" height="1.25"/><polygon points="132.51 20.22 133.51 20.22 133.51 26.71 137.08 26.71 137.08 27.55 132.51 27.55 132.51 20.22"/><path d="m138.11,20.22h2.53c.75,0,1.34.16,1.75.47.4.32.61.76.61,1.34,0,.45-.11.81-.32,1.08-.21.26-.51.43-.91.49.48.11.86.33,1.14.66.26.33.4.74.4,1.24,0,.66-.23,1.17-.67,1.52-.44.36-1.08.53-1.89.53h-2.63v-7.33Zm1,.81v2.21h1.47c.48,0,.83-.09,1.08-.27.24-.18.36-.45.36-.83,0-.36-.12-.64-.36-.82-.24-.18-.59-.28-1.08-.28h-1.47Zm0,3.02v2.68h1.59c.53,0,.92-.11,1.19-.33.25-.22.38-.55.38-1.02s-.13-.78-.38-1.01c-.26-.22-.65-.33-1.19-.33h-1.59Z"/><polygon points="145.01 20.22 149.22 20.22 149.22 21.05 146 21.05 146 23.22 148.91 23.22 148.91 24.05 146 24.05 146 27.55 145.01 27.55 145.01 20.22"/><path d="m155.78,26.5v-1.97h-1.62v-.81h2.6v3.15c-.38.28-.8.48-1.27.61-.46.13-.95.2-1.48.2-1.15,0-2.05-.33-2.69-1-.64-.66-.96-1.6-.96-2.79s.32-2.12.96-2.79c.64-.66,1.55-1.01,2.69-1.01.47,0,.92.06,1.36.18.43.12.83.29,1.2.51v1.06c-.37-.3-.76-.53-1.18-.69-.41-.16-.84-.24-1.3-.24-.9,0-1.58.25-2.02.75-.45.5-.67,1.25-.67,2.23s.22,1.74.67,2.24c.44.5,1.12.74,2.02.74.34,0,.65-.03.93-.09s.52-.15.74-.28Z"/><path d="m162.97,20.46v.96c-.38-.18-.73-.31-1.07-.4-.34-.08-.66-.13-.96-.13-.54,0-.96.11-1.26.31-.29.21-.43.51-.43.89,0,.32.09.57.29.73.19.17.56.3,1.11.4l.6.12c.73.14,1.28.39,1.63.74.35.36.53.83.53,1.43,0,.71-.24,1.25-.71,1.61-.48.36-1.18.54-2.09.54-.35,0-.72-.04-1.12-.11-.39-.07-.79-.18-1.21-.34v-1.03c.4.23.79.4,1.18.51.38.12.76.17,1.15.17.56,0,1-.11,1.31-.33.3-.22.46-.53.46-.95,0-.36-.11-.64-.33-.84s-.58-.35-1.09-.45l-.6-.12c-.74-.14-1.28-.37-1.61-.69-.33-.31-.49-.74-.49-1.31,0-.64.22-1.16.68-1.53.45-.37,1.09-.56,1.89-.56.34,0,.68.03,1.05.09.35.06.71.16,1.1.28Z"/></svg>